<?xml version="1.0" encoding="UTF-8"?>
<svg id="_圖層_2" data-name="圖層 2" xmlns="http://www.w3.org/2000/svg" viewBox="0 0 141 141">
  <defs>
    <style>
      .cls-1 {
        fill: #05356c;
      }

      .cls-1, .cls-2 {
        stroke-width: 0px;
      }

      .cls-2 {
        fill: #fff;
      }
    </style>
  </defs>
  <g id="_圖層_1-2" data-name="圖層 1">
    <rect class="cls-1" width="141" height="141" rx="20" ry="20"/>
    <rect class="cls-2" x="77.5" y="12.5" width="12" height="61" rx="3.99" ry="3.99" transform="translate(126.5 -40.5) rotate(90)"/>
    <path class="cls-2" d="M89.57,55h-32.34c.49,1.15.77,2.48.77,3.89,0,.02,0,.03,0,.05,0,.02,0,.03,0,.05v8.01h31.57c2.19,0,3.99-1.8,3.99-3.99v-4.02c0-2.19-1.8-3.99-3.99-3.99Z"/>
    <circle class="cls-2" cx="38.5" cy="70.5" r="14.5"/>
    <path class="cls-2" d="M61.25,113c0,10.49-10.3,8-23,8s-23,2.49-23-8,10.3-24,23-24,23,13.51,23,24Z"/>
    <path class="cls-2" d="M124,85c3.3,0,6-2.7,6-6V24c0-3.3-2.7-6-6-6H43c-3.3,0-6,2.7-6,6v26.92h12v-20.92h69v43h-34v.35c-.63-.22-1.3-.35-2-.35-3.3,0-6,2.7-6,6v28h-10.93v12h58.93c3.3,0,6-2.7,6-6s-2.7-6-6-6h-36v-22h36Z"/>
  </g>
</svg>