<?xml version="1.0" encoding="UTF-8"?>
<svg id="_圖層_2" data-name="圖層 2" xmlns="http://www.w3.org/2000/svg" viewBox="0 0 141 141">
  <defs>
    <style>
      .cls-1 {
        fill: #05356c;
      }

      .cls-1, .cls-2 {
        stroke-width: 0px;
      }

      .cls-2 {
        fill: #fff;
      }
    </style>
  </defs>
  <g id="_圖層_1-2" data-name="圖層 1">
    <rect class="cls-1" width="141" height="141" rx="20" ry="20"/>
    <rect class="cls-2" x="6" y="58" width="12" height="67" rx="6" ry="6"/>
    <rect class="cls-2" x="47" y="58" width="12" height="67" rx="6" ry="6"/>
    <rect class="cls-2" x="26.5" y="37.5" width="12" height="53" rx="6" ry="6" transform="translate(96.5 31.5) rotate(90)"/>
    <rect class="cls-2" x="26.5" y="92.5" width="12" height="53" rx="6" ry="6" transform="translate(151.5 86.5) rotate(90)"/>
    <path class="cls-2" d="M109.94,36h-20.89c-1.68,0-3.06,1.38-3.06,3.06h0s0,0,0,0v28.02s0,0,0,0h0c0,.84.34,1.6.9,2.16s1.32.9,2.16.9c0,0,0,0,0,0h20.89s0,0,0,0h0c1.26,0,2.35-.77,2.82-1.87.16-.37.24-.77.24-1.19h0v-28.02h0c0-1.68-1.38-3.06-3.06-3.06ZM92.11,42.11h14.77v21.91h-14.77v-21.91Z"/>
    <rect class="cls-2" x="28.29" y="71.71" width="9.43" height="20" rx="3.99" ry="3.99" transform="translate(114.71 48.71) rotate(90)"/>
    <rect class="cls-2" x="28.29" y="84.29" width="9.43" height="20" rx="3.99" ry="3.99" transform="translate(127.29 61.29) rotate(90)"/>
    <path class="cls-2" d="M124,85c3.3,0,6-2.7,6-6V24c0-3.3-2.7-6-6-6H43c-3.3,0-6,2.7-6,6v26.92h12v-20.92h69v43h-34v.35c-.63-.22-1.3-.35-2-.35-3.3,0-6,2.7-6,6v28h-10.93v12h58.93c3.3,0,6-2.7,6-6s-2.7-6-6-6h-36v-22h36Z"/>
    <rect class="cls-2" x="63.4" y="25.56" width="6.11" height="27" rx="3.06" ry="3.06" transform="translate(105.52 -27.4) rotate(90)"/>
    <rect class="cls-2" x="63.4" y="36.56" width="6.11" height="27" rx="3.06" ry="3.06" transform="translate(116.52 -16.4) rotate(90)"/>
  </g>
</svg>