<?xml version="1.0" encoding="UTF-8"?>
<svg id="_圖層_2" data-name="圖層 2" xmlns="http://www.w3.org/2000/svg" viewBox="0 0 141 141">
  <defs>
    <style>
      .cls-1 {
        fill: #05356c;
      }

      .cls-1, .cls-2 {
        stroke-width: 0px;
      }

      .cls-2 {
        fill: #fff;
      }
    </style>
  </defs>
  <g id="_圖層_1-2" data-name="圖層 1">
    <rect class="cls-1" width="141" height="141" rx="20" ry="20"/>
    <rect class="cls-2" x="103.33" y="54.42" width="11.32" height="63.2" rx="5.66" ry="5.66" transform="translate(92.75 -51.87) rotate(45)"/>
    <path class="cls-2" d="M127.33,62.01h-38.67c-3.11,0-5.66,2.55-5.66,5.66,0,3.11,2.55,5.66,5.66,5.66h33.02v33.02c0,3.11,2.55,5.66,5.66,5.66,3.11,0,5.66-2.55,5.66-5.66v-38.67c0-1.56-.64-2.97-1.67-4-1.03-1.03-2.44-1.67-4-1.67Z"/>
    <path class="cls-2" d="M18,85c-3.3,0-6-2.7-6-6V24c0-3.3,2.7-6,6-6h81c3.3,0,6,2.7,6,6v26.92h-12v-20.92s-69,0-69,0v43s34,0,34,0v.35c.63-.22,1.3-.35,2-.35,3.3,0,6,2.7,6,6v28s10.93,0,10.93,0v12H18c-3.3,0-6-2.7-6-6s2.7-6,6-6h36s0-22,0-22H18Z"/>
    <rect class="cls-2" x="38.4" y="25.56" width="6.11" height="27" rx="3.06" ry="3.06" transform="translate(80.52 -2.4) rotate(90)"/>
    <rect class="cls-2" x="38.4" y="36.56" width="6.11" height="27" rx="3.06" ry="3.06" transform="translate(91.52 8.6) rotate(90)"/>
  </g>
</svg>