<?xml version="1.0" encoding="utf-8"?>
<!-- Generator: Adobe Illustrator 27.9.3, SVG Export Plug-In . SVG Version: 9.03 Build 53313)  -->
<svg version="1.1" id="_圖層_2" xmlns="http://www.w3.org/2000/svg" xmlns:xlink="http://www.w3.org/1999/xlink" x="0px" y="0px"
	 viewBox="0 0 141 141" style="enable-background:new 0 0 141 141;" xml:space="preserve">
<style type="text/css">
	.st0{fill:#05356C;}
	.st1{fill:#FFFFFF;}
</style>
<path class="st0" d="M20,0h101c11,0,20,9,20,20v101c0,11-9,20-20,20H20c-11,0-20-9-20-20V20C0,9,9,0,20,0z"/>
<path class="st1" d="M114,41v4c0,2.2-1.8,4-4,4H57c-2.2,0-4-1.8-4-4v-4c0-2.2,1.8-4,4-4h53C112.2,37,114,38.8,114,41z"/>
<path class="st1" d="M124,85c3.3,0,6-2.7,6-6V24c0-3.3-2.7-6-6-6H43c-3.3,0-6,2.7-6,6v26.9h12V30h69v43H84v0.3
	c-0.6-0.2-1.3-0.3-2-0.3c-3.3,0-6,2.7-6,6v28H65.1v12H124c3.3,0,6-2.7,6-6s-2.7-6-6-6H88V85H124z"/>
<path class="st1" d="M89.9,55H65.1v12h24.8c2,0,3.6-1.8,3.6-4v-4C93.6,56.8,91.9,55,89.9,55z"/>
<path class="st1" d="M56.3,71.2c0.2-0.6,0.3-1.1,0.3-1.7c0-6-11-10.8-24.5-10.8c-13.5,0-24.5,4.8-24.5,10.8c0,0.6,0.1,1.1,0.3,1.7
	v3.3c-0.2,0.6-0.3,1.1-0.3,1.7c0,6,11,10.8,24.5,10.8c13.5,0,24.5-4.8,24.5-10.8c0-0.6-0.1-1.1-0.3-1.7V71.2z"/>
<path class="st1" d="M56.6,108c0-1.1-0.4-2.1-1-3.1c-3,4.5-12.4,7.7-23.5,7.7s-20.5-3.3-23.5-7.7c-0.7,1-1,2-1,3.1
	c0,0.6,0.1,1.1,0.3,1.7v3.3c-0.2,0.6-0.3,1.1-0.3,1.7c0,6,11,10.8,24.5,10.8c13.5,0,24.5-4.8,24.5-10.8c0-0.6-0.1-1.1-0.3-1.7v-3.3
	C56.5,109.2,56.6,108.6,56.6,108z"/>
<path class="st1" d="M56.6,88.9c0-1.1-0.4-2.1-1-3.1c-3,4.5-12.4,7.7-23.5,7.7s-20.5-3.3-23.5-7.7c-0.7,1-1,2-1,3.1
	c0,0.6,0.1,1.1,0.3,1.7v3.3c-0.2,0.6-0.3,1.1-0.3,1.7c0,6,11,10.8,24.5,10.8c13.5,0,24.5-4.8,24.5-10.8c0-0.6-0.1-1.1-0.3-1.7v-3.3
	C56.5,90,56.6,89.4,56.6,88.9z"/>
</svg>
