<svg xmlns="http://www.w3.org/2000/svg" xmlns:xlink="http://www.w3.org/1999/xlink" viewBox="0,0,256,256" width="64px" height="64px"><g fill="#fda42d" fill-rule="nonzero" stroke="none" stroke-width="1" stroke-linecap="butt" stroke-linejoin="miter" stroke-miterlimit="10" stroke-dasharray="" stroke-dashoffset="0" font-family="none" font-weight="none" font-size="none" text-anchor="none" style="mix-blend-mode: normal"><g transform="scale(2,2)"><path d="M64,13.5c-27.8,0 -50.5,22.7 -50.5,50.5c0,27.8 22.7,50.5 50.5,50.5c27.8,0 50.5,-22.7 50.5,-50.5c0,-27.8 -22.7,-50.5 -50.5,-50.5zM64,19.5c24.5,0 44.5,20 44.5,44.5c0,24.5 -20,44.5 -44.5,44.5c-24.5,0 -44.5,-20 -44.5,-44.5c0,-24.5 20,-44.5 44.5,-44.5zM64,31c-1.7,0 -3,1.3 -3,3v24.80078c-1.8,1 -3,2.99922 -3,5.19922c0,3.3 2.7,6 6,6c2.2,0 4.19922,-1.2 5.19922,-3h14.80078c1.7,0 3,-1.3 3,-3c0,-1.7 -1.3,-3 -3,-3h-14.80078c-0.5,-0.9 -1.29922,-1.69922 -2.19922,-2.19922v-24.80078c0,-1.7 -1.3,-3 -3,-3z"></path></g></g></svg>